<?xml version="1.0" encoding="utf-8"?>
<!-- Generator: Adobe Illustrator 25.1.0, SVG Export Plug-In . SVG Version: 6.00 Build 0)  -->
<svg version="1.1" id="Capa_1" xmlns="http://www.w3.org/2000/svg" xmlns:xlink="http://www.w3.org/1999/xlink" x="0px" y="0px"
	 viewBox="0 0 150 150" style="enable-background:new 0 0 150 150;" xml:space="preserve">
<style type="text/css">
	.st0{fill:url(#SVGID_1_);}
	.st1{fill:url(#SVGID_2_);}
	.st2{fill:url(#SVGID_3_);}
	.st3{fill:url(#SVGID_4_);}
	.st4{fill:url(#SVGID_5_);}
	.st5{fill:url(#SVGID_6_);}
	.st6{fill:url(#SVGID_7_);}
	.st7{fill:url(#SVGID_8_);}
	.st8{fill:url(#SVGID_9_);}
	.st9{fill:url(#SVGID_10_);}
	.st10{fill:url(#SVGID_11_);}
	.st11{fill:url(#SVGID_12_);}
	.st12{fill:url(#SVGID_13_);}
	.st13{fill:url(#SVGID_14_);}
	.st14{fill:url(#SVGID_15_);}
	.st15{fill:url(#SVGID_16_);}
	.st16{fill:url(#SVGID_17_);}
	.st17{fill:url(#SVGID_18_);}
	.st18{fill:url(#SVGID_19_);}
	.st19{fill:url(#SVGID_20_);}
	.st20{fill:url(#SVGID_21_);}
</style>
<linearGradient id="SVGID_1_" gradientUnits="userSpaceOnUse" x1="30.9" y1="92.6487" x2="90.7807" y2="92.6487">
	<stop  offset="7.065909e-02" style="stop-color:#E5E5E5"/>
	<stop  offset="0.1324" style="stop-color:#E1E1E1"/>
	<stop  offset="0.1873" style="stop-color:#DEDEDE"/>
	<stop  offset="0.2274" style="stop-color:#DCDCDC"/>
	<stop  offset="0.2688" style="stop-color:#D6D6D5"/>
	<stop  offset="0.3085" style="stop-color:#D5D5D4"/>
	<stop  offset="0.3614" style="stop-color:#D3D3D2"/>
	<stop  offset="0.4188" style="stop-color:#D1D1D0"/>
	<stop  offset="0.4456" style="stop-color:#CFCFCE"/>
	<stop  offset="0.509" style="stop-color:#CDCDCC"/>
	<stop  offset="0.5404" style="stop-color:#CBCBCA"/>
	<stop  offset="0.5872" style="stop-color:#C7C7C6"/>
	<stop  offset="0.599" style="stop-color:#C6C6C5"/>
	<stop  offset="0.6516" style="stop-color:#C4C4C3"/>
	<stop  offset="0.6927" style="stop-color:#C2C2C1"/>
	<stop  offset="0.7224" style="stop-color:#C1C1C0"/>
	<stop  offset="0.7579" style="stop-color:#C1C1C0"/>
	<stop  offset="0.8064" style="stop-color:#C0C0BF"/>
	<stop  offset="0.8612" style="stop-color:#BFBFBE"/>
	<stop  offset="0.8826" style="stop-color:#BFBFBE"/>
	<stop  offset="0.918" style="stop-color:#B5B5B4"/>
	<stop  offset="0.9575" style="stop-color:#B1B1B0"/>
	<stop  offset="0.9623" style="stop-color:#ADADAC"/>
</linearGradient>
<path class="st0" d="M31,123.7c0.7-2.7,1.3-5.3,2-8c0.3-1.1,0.5-2.1,0.8-3.2s0.9-1.5,1.8-1.3c0.8,0.2,1.2,0.9,1,2
	c-0.6,2.7-1.3,5.4-2,8.1c0,0.1,0,0.2-0.1,0.5c4-1.5,7.9-3,11.8-4.5c-1-1.2-2.1-2.3-3-3.5c-2.9-3.8-4.2-8.1-4.5-12.8
	c-0.1-2.1-0.4-4.3-0.5-6.4c-0.1-1.2,0.4-1.9,1.4-1.9c0.9,0,1.4,0.6,1.5,1.7c0.3,3.4,0.5,6.8,1,10.1c0.8,4.7,3.4,8.5,7.1,11.5
	c0.1,0.1,0.4,0.2,0.6,0.1c5.4-2,10.8-4.1,16.1-6.1c0,0,0,0,0-0.1c-0.6-0.3-1.2-0.6-1.7-0.9c-12.5-7-20-17.4-22.7-31.3
	c-0.1-0.5-0.1-1.1,0.2-1.5c0.3-0.3,0.9-0.6,1.3-0.6c0.7,0,1.1,0.6,1.2,1.3c0.3,1.5,0.6,3.1,1,4.6c3.8,12.6,11.8,21.4,23.9,26.5
	c0.3,0.1,0.7,0.3,1,0.1c3.2-1.2,6.4-2.4,9.6-3.6c-1.6-0.8-3.3-1.5-4.8-2.3C66.7,97.7,59.9,91.4,54,84c-3-3.8-5.7-7.8-7.5-12.4
	c-0.9-2.3-1.5-4.6-1.1-7c0.6-3.3,3.9-5.5,7.2-4.6c0.8,0.2,1.2,0.8,1.1,1.6c-0.1,0.8-0.7,1.2-1.6,1.2c-0.3,0-0.6-0.1-0.9-0.1
	c-1.9,0.1-3,1.2-3.1,3.1c-0.1,1.8,0.4,3.4,1.1,5c1.8,4.5,4.5,8.5,7.6,12.2c5.8,7,12.4,13,20.5,17.2c2.1,1.1,4.3,2,6.7,2.2
	c0.6,0,1.2,0,1.8-0.1c1.2-0.2,1.8-1.1,2-2.3c0.2-1.7-0.2-3.2-0.7-4.8c-0.1-0.4-0.3-0.7-0.3-1.1c-0.1-0.7,0.3-1.3,1-1.5
	s1.4,0,1.6,0.7c1.1,2.6,1.8,5.2,1.1,8c-0.4,1.8-1.6,3-3.3,3.6c-6.7,2.5-13.4,5-20.2,7.6c-11.2,4.2-22.5,8.5-33.7,12.7
	c-0.2,0.1-0.4,0.2-0.6,0.3c-0.6,0-1.2,0-1.8,0C31,124.9,31,124.3,31,123.7z"/>
<linearGradient id="SVGID_2_" gradientUnits="userSpaceOnUse" x1="95.3617" y1="113.4248" x2="116.7371" y2="113.4248">
	<stop  offset="7.065909e-02" style="stop-color:#E5E5E5"/>
	<stop  offset="0.1324" style="stop-color:#E1E1E1"/>
	<stop  offset="0.1873" style="stop-color:#DEDEDE"/>
	<stop  offset="0.2274" style="stop-color:#DCDCDC"/>
	<stop  offset="0.2688" style="stop-color:#D6D6D5"/>
	<stop  offset="0.3085" style="stop-color:#D5D5D4"/>
	<stop  offset="0.3614" style="stop-color:#D3D3D2"/>
	<stop  offset="0.4188" style="stop-color:#D1D1D0"/>
	<stop  offset="0.4456" style="stop-color:#CFCFCE"/>
	<stop  offset="0.509" style="stop-color:#CDCDCC"/>
	<stop  offset="0.5404" style="stop-color:#CBCBCA"/>
	<stop  offset="0.5872" style="stop-color:#C7C7C6"/>
	<stop  offset="0.599" style="stop-color:#C6C6C5"/>
	<stop  offset="0.6516" style="stop-color:#C4C4C3"/>
	<stop  offset="0.6927" style="stop-color:#C2C2C1"/>
	<stop  offset="0.7224" style="stop-color:#C1C1C0"/>
	<stop  offset="0.7579" style="stop-color:#C1C1C0"/>
	<stop  offset="0.8064" style="stop-color:#C0C0BF"/>
	<stop  offset="0.8612" style="stop-color:#BFBFBE"/>
	<stop  offset="0.8826" style="stop-color:#BFBFBE"/>
	<stop  offset="0.918" style="stop-color:#B5B5B4"/>
	<stop  offset="0.9575" style="stop-color:#B1B1B0"/>
	<stop  offset="0.9623" style="stop-color:#ADADAC"/>
</linearGradient>
<path class="st1" d="M113.9,125.6c-1.1-0.7-1.3-1.2-0.7-2.5c1-2,1-4.1,0-6.1c-0.1-0.2-0.3-0.5-0.4-0.7c-0.3,1-0.5,2-0.8,2.8
	c-0.9,2.1-2.5,3.3-4.8,3.5c-2.4,0.2-4.3-0.8-5.4-3c-1.1-2-1-4.1,0.3-6c1.2-1.7,2.8-2.7,4.7-3.3c0.2-0.1,0.4-0.1,0.6-0.2
	c-1.9-2.1-4.1-3.7-6.7-4.8c-1.3-0.5-2.6-0.8-3.9-1.2c-1-0.3-1.6-0.9-1.4-1.7c0.2-0.9,0.9-1.3,2-1.1c5.9,1.2,10.6,4.3,14,9.3
	c0.3,0.5,0.8,1,1.3,1.3c3.9,2.9,5.2,8.5,2.9,12.8c-0.2,0.4-0.6,0.6-0.9,0.9C114.5,125.6,114.2,125.6,113.9,125.6z M110.1,115.7
	L110.1,115.7c-0.1-0.3-0.1-0.7-0.2-1c-0.3-1.6-1.1-2-2.6-1.5c-1.1,0.4-2.1,1.1-2.8,2.1c-0.9,1.4-0.5,3.2,0.9,4.1
	c1.4,0.8,3.3,0.3,4-1.2C109.7,117.4,109.9,116.5,110.1,115.7z"/>
<linearGradient id="SVGID_3_" gradientUnits="userSpaceOnUse" x1="31" y1="47.7523" x2="48.2766" y2="47.7523">
	<stop  offset="7.065909e-02" style="stop-color:#E5E5E5"/>
	<stop  offset="0.1324" style="stop-color:#E1E1E1"/>
	<stop  offset="0.1873" style="stop-color:#DEDEDE"/>
	<stop  offset="0.2274" style="stop-color:#DCDCDC"/>
	<stop  offset="0.2688" style="stop-color:#D6D6D5"/>
	<stop  offset="0.3085" style="stop-color:#D5D5D4"/>
	<stop  offset="0.3614" style="stop-color:#D3D3D2"/>
	<stop  offset="0.4188" style="stop-color:#D1D1D0"/>
	<stop  offset="0.4456" style="stop-color:#CFCFCE"/>
	<stop  offset="0.509" style="stop-color:#CDCDCC"/>
	<stop  offset="0.5404" style="stop-color:#CBCBCA"/>
	<stop  offset="0.5872" style="stop-color:#C7C7C6"/>
	<stop  offset="0.599" style="stop-color:#C6C6C5"/>
	<stop  offset="0.6516" style="stop-color:#C4C4C3"/>
	<stop  offset="0.6927" style="stop-color:#C2C2C1"/>
	<stop  offset="0.7224" style="stop-color:#C1C1C0"/>
	<stop  offset="0.7579" style="stop-color:#C1C1C0"/>
	<stop  offset="0.8064" style="stop-color:#C0C0BF"/>
	<stop  offset="0.8612" style="stop-color:#BFBFBE"/>
	<stop  offset="0.8826" style="stop-color:#BFBFBE"/>
	<stop  offset="0.918" style="stop-color:#B5B5B4"/>
	<stop  offset="0.9575" style="stop-color:#B1B1B0"/>
	<stop  offset="0.9623" style="stop-color:#ADADAC"/>
</linearGradient>
<path class="st2" d="M31,45.8c0.4-0.7,1-1,1.8-1.1c1-0.1,2.1-0.3,3.1-0.5c0.3-0.1,0.7-0.3,0.9-0.6c0.5-1,1-2,1.5-3
	c0.3-0.6,0.7-1,1.4-1s1.1,0.4,1.4,1c0.5,1,0.9,2,1.5,3c0.2,0.3,0.5,0.5,0.9,0.6c1.1,0.2,2.3,0.4,3.4,0.5c0.6,0.1,1.1,0.4,1.3,1
	s0,1.1-0.5,1.6c-0.8,0.8-1.7,1.6-2.5,2.5c-0.2,0.2-0.3,0.6-0.3,0.9c0.1,1.1,0.4,2.1,0.5,3.2c0.1,0.7,0.1,1.3-0.5,1.7
	c-0.6,0.5-1.2,0.3-1.9,0c-0.9-0.5-1.9-1-2.8-1.5c-0.3-0.1-0.8-0.2-1.1,0c-1,0.5-2,1.1-3.1,1.5c-0.5,0.2-1.2,0.2-1.6,0
	c-0.6-0.2-0.7-0.9-0.6-1.5c0.2-1.1,0.3-2.2,0.6-3.2c0.1-0.6,0-1-0.4-1.4c-1-1-1.9-2-2.9-3C31,46.4,31,46.1,31,45.8z M42.1,52
	c-0.8-2-0.2-3.5,1.5-4.7c-2.2,0.1-3.4-0.9-4-3c-0.5,2.1-1.8,3-4,3c1.8,1.2,2.2,2.7,1.6,4.8C38.9,50.5,40.5,50.8,42.1,52z"/>
<linearGradient id="SVGID_4_" gradientUnits="userSpaceOnUse" x1="75.4392" y1="75.4338" x2="108.3324" y2="75.4338">
	<stop  offset="7.065909e-02" style="stop-color:#E5E5E5"/>
	<stop  offset="0.1324" style="stop-color:#E1E1E1"/>
	<stop  offset="0.1873" style="stop-color:#DEDEDE"/>
	<stop  offset="0.2274" style="stop-color:#DCDCDC"/>
	<stop  offset="0.2688" style="stop-color:#D6D6D5"/>
	<stop  offset="0.3085" style="stop-color:#D5D5D4"/>
	<stop  offset="0.3614" style="stop-color:#D3D3D2"/>
	<stop  offset="0.4188" style="stop-color:#D1D1D0"/>
	<stop  offset="0.4456" style="stop-color:#CFCFCE"/>
	<stop  offset="0.509" style="stop-color:#CDCDCC"/>
	<stop  offset="0.5404" style="stop-color:#CBCBCA"/>
	<stop  offset="0.5872" style="stop-color:#C7C7C6"/>
	<stop  offset="0.599" style="stop-color:#C6C6C5"/>
	<stop  offset="0.6516" style="stop-color:#C4C4C3"/>
	<stop  offset="0.6927" style="stop-color:#C2C2C1"/>
	<stop  offset="0.7224" style="stop-color:#C1C1C0"/>
	<stop  offset="0.7579" style="stop-color:#C1C1C0"/>
	<stop  offset="0.8064" style="stop-color:#C0C0BF"/>
	<stop  offset="0.8612" style="stop-color:#BFBFBE"/>
	<stop  offset="0.8826" style="stop-color:#BFBFBE"/>
	<stop  offset="0.918" style="stop-color:#B5B5B4"/>
	<stop  offset="0.9575" style="stop-color:#B1B1B0"/>
	<stop  offset="0.9623" style="stop-color:#ADADAC"/>
</linearGradient>
<path class="st3" d="M77,84c-0.9-0.1-1.3-0.4-1.5-1.1s0.1-1.3,0.8-1.7c1.6-0.8,3.2-1.5,4.8-2.3c8.2-3.9,16.4-7.8,24.6-11.7
	c0.2-0.1,0.3-0.1,0.5-0.2c0.8-0.3,1.6-0.1,2,0.7c0.3,0.7,0.1,1.5-0.7,1.9c-1.6,0.8-3.3,1.6-4.9,2.4c-8.2,3.9-16.4,7.8-24.7,11.7
	C77.6,83.8,77.2,83.9,77,84z"/>
<linearGradient id="SVGID_5_" gradientUnits="userSpaceOnUse" x1="58.7" y1="64.7038" x2="66.8" y2="64.7038">
	<stop  offset="7.065909e-02" style="stop-color:#E5E5E5"/>
	<stop  offset="0.1324" style="stop-color:#E1E1E1"/>
	<stop  offset="0.1873" style="stop-color:#DEDEDE"/>
	<stop  offset="0.2274" style="stop-color:#DCDCDC"/>
	<stop  offset="0.2688" style="stop-color:#D6D6D5"/>
	<stop  offset="0.3085" style="stop-color:#D5D5D4"/>
	<stop  offset="0.3614" style="stop-color:#D3D3D2"/>
	<stop  offset="0.4188" style="stop-color:#D1D1D0"/>
	<stop  offset="0.4456" style="stop-color:#CFCFCE"/>
	<stop  offset="0.509" style="stop-color:#CDCDCC"/>
	<stop  offset="0.5404" style="stop-color:#CBCBCA"/>
	<stop  offset="0.5872" style="stop-color:#C7C7C6"/>
	<stop  offset="0.599" style="stop-color:#C6C6C5"/>
	<stop  offset="0.6516" style="stop-color:#C4C4C3"/>
	<stop  offset="0.6927" style="stop-color:#C2C2C1"/>
	<stop  offset="0.7224" style="stop-color:#C1C1C0"/>
	<stop  offset="0.7579" style="stop-color:#C1C1C0"/>
	<stop  offset="0.8064" style="stop-color:#C0C0BF"/>
	<stop  offset="0.8612" style="stop-color:#BFBFBE"/>
	<stop  offset="0.8826" style="stop-color:#BFBFBE"/>
	<stop  offset="0.918" style="stop-color:#B5B5B4"/>
	<stop  offset="0.9575" style="stop-color:#B1B1B0"/>
	<stop  offset="0.9623" style="stop-color:#ADADAC"/>
</linearGradient>
<path class="st4" d="M66.8,58.2c0,6.3-1.1,11.8-3.3,17.1c-0.6,1.5-1.3,3-1.9,4.6c-0.5,1.1-1.2,1.5-2.1,1.1c-0.8-0.3-1-1.2-0.6-2.2
	c1.1-2.9,2.4-5.8,3.4-8.7c2-6.4,2.2-12.8,0.9-19.4c0-0.2-0.1-0.5-0.1-0.7c-0.1-0.9,0.3-1.5,1.1-1.7s1.5,0.3,1.7,1.1
	C66.5,52.5,66.8,55.6,66.8,58.2z"/>
<linearGradient id="SVGID_6_" gradientUnits="userSpaceOnUse" x1="72.4849" y1="89.7098" x2="103.8828" y2="89.7098">
	<stop  offset="7.065909e-02" style="stop-color:#E5E5E5"/>
	<stop  offset="0.1324" style="stop-color:#E1E1E1"/>
	<stop  offset="0.1873" style="stop-color:#DEDEDE"/>
	<stop  offset="0.2274" style="stop-color:#DCDCDC"/>
	<stop  offset="0.2688" style="stop-color:#D6D6D5"/>
	<stop  offset="0.3085" style="stop-color:#D5D5D4"/>
	<stop  offset="0.3614" style="stop-color:#D3D3D2"/>
	<stop  offset="0.4188" style="stop-color:#D1D1D0"/>
	<stop  offset="0.4456" style="stop-color:#CFCFCE"/>
	<stop  offset="0.509" style="stop-color:#CDCDCC"/>
	<stop  offset="0.5404" style="stop-color:#CBCBCA"/>
	<stop  offset="0.5872" style="stop-color:#C7C7C6"/>
	<stop  offset="0.599" style="stop-color:#C6C6C5"/>
	<stop  offset="0.6516" style="stop-color:#C4C4C3"/>
	<stop  offset="0.6927" style="stop-color:#C2C2C1"/>
	<stop  offset="0.7224" style="stop-color:#C1C1C0"/>
	<stop  offset="0.7579" style="stop-color:#C1C1C0"/>
	<stop  offset="0.8064" style="stop-color:#C0C0BF"/>
	<stop  offset="0.8612" style="stop-color:#BFBFBE"/>
	<stop  offset="0.8826" style="stop-color:#BFBFBE"/>
	<stop  offset="0.918" style="stop-color:#B5B5B4"/>
	<stop  offset="0.9575" style="stop-color:#B1B1B0"/>
	<stop  offset="0.9623" style="stop-color:#ADADAC"/>
</linearGradient>
<path class="st5" d="M85.3,86.8c6.9,0,12.3,1,17.4,2.9c0.4,0.2,1,0.5,1.1,0.9c0.2,0.4,0,1.1-0.2,1.5c-0.4,0.6-1,0.6-1.7,0.4
	c-1.6-0.5-3.2-1.1-4.8-1.5c-6.4-1.6-12.9-1.7-19.5-0.4c-1.2,0.2-2.3,0.4-3.5,0.6c-0.8,0.1-1.5-0.4-1.6-1.1c-0.1-0.8,0.3-1.5,1.1-1.7
	C78,87.6,82.3,86.8,85.3,86.8z"/>
<linearGradient id="SVGID_7_" gradientUnits="userSpaceOnUse" x1="84" y1="60.35" x2="94" y2="60.35">
	<stop  offset="7.065909e-02" style="stop-color:#E5E5E5"/>
	<stop  offset="0.1324" style="stop-color:#E1E1E1"/>
	<stop  offset="0.1873" style="stop-color:#DEDEDE"/>
	<stop  offset="0.2274" style="stop-color:#DCDCDC"/>
	<stop  offset="0.2688" style="stop-color:#D6D6D5"/>
	<stop  offset="0.3085" style="stop-color:#D5D5D4"/>
	<stop  offset="0.3614" style="stop-color:#D3D3D2"/>
	<stop  offset="0.4188" style="stop-color:#D1D1D0"/>
	<stop  offset="0.4456" style="stop-color:#CFCFCE"/>
	<stop  offset="0.509" style="stop-color:#CDCDCC"/>
	<stop  offset="0.5404" style="stop-color:#CBCBCA"/>
	<stop  offset="0.5872" style="stop-color:#C7C7C6"/>
	<stop  offset="0.599" style="stop-color:#C6C6C5"/>
	<stop  offset="0.6516" style="stop-color:#C4C4C3"/>
	<stop  offset="0.6927" style="stop-color:#C2C2C1"/>
	<stop  offset="0.7224" style="stop-color:#C1C1C0"/>
	<stop  offset="0.7579" style="stop-color:#C1C1C0"/>
	<stop  offset="0.8064" style="stop-color:#C0C0BF"/>
	<stop  offset="0.8612" style="stop-color:#BFBFBE"/>
	<stop  offset="0.8826" style="stop-color:#BFBFBE"/>
	<stop  offset="0.918" style="stop-color:#B5B5B4"/>
	<stop  offset="0.9575" style="stop-color:#B1B1B0"/>
	<stop  offset="0.9623" style="stop-color:#ADADAC"/>
</linearGradient>
<path class="st6" d="M94,60.4c0,1.1,0,2.2,0,3.3c0,1.2-0.5,1.7-1.7,1.7c-2.2,0-4.5,0-6.7,0c-1.1,0-1.6-0.5-1.6-1.7
	c0-2.2,0-4.5,0-6.7c0-1.2,0.5-1.7,1.7-1.7c2.2,0,4.4,0,6.6,0c1.2,0,1.7,0.5,1.7,1.7S94,59.3,94,60.4z M86.9,58.3c0,1.5,0,2.8,0,4.2
	c1.4,0,2.8,0,4.2,0c0-1.4,0-2.8,0-4.2C89.7,58.3,88.3,58.3,86.9,58.3z"/>
<linearGradient id="SVGID_8_" gradientUnits="userSpaceOnUse" x1="65.4143" y1="74.6198" x2="82.8" y2="74.6198">
	<stop  offset="7.065909e-02" style="stop-color:#E5E5E5"/>
	<stop  offset="0.1324" style="stop-color:#E1E1E1"/>
	<stop  offset="0.1873" style="stop-color:#DEDEDE"/>
	<stop  offset="0.2274" style="stop-color:#DCDCDC"/>
	<stop  offset="0.2688" style="stop-color:#D6D6D5"/>
	<stop  offset="0.3085" style="stop-color:#D5D5D4"/>
	<stop  offset="0.3614" style="stop-color:#D3D3D2"/>
	<stop  offset="0.4188" style="stop-color:#D1D1D0"/>
	<stop  offset="0.4456" style="stop-color:#CFCFCE"/>
	<stop  offset="0.509" style="stop-color:#CDCDCC"/>
	<stop  offset="0.5404" style="stop-color:#CBCBCA"/>
	<stop  offset="0.5872" style="stop-color:#C7C7C6"/>
	<stop  offset="0.599" style="stop-color:#C6C6C5"/>
	<stop  offset="0.6516" style="stop-color:#C4C4C3"/>
	<stop  offset="0.6927" style="stop-color:#C2C2C1"/>
	<stop  offset="0.7224" style="stop-color:#C1C1C0"/>
	<stop  offset="0.7579" style="stop-color:#C1C1C0"/>
	<stop  offset="0.8064" style="stop-color:#C0C0BF"/>
	<stop  offset="0.8612" style="stop-color:#BFBFBE"/>
	<stop  offset="0.8826" style="stop-color:#BFBFBE"/>
	<stop  offset="0.918" style="stop-color:#B5B5B4"/>
	<stop  offset="0.9575" style="stop-color:#B1B1B0"/>
	<stop  offset="0.9623" style="stop-color:#ADADAC"/>
</linearGradient>
<path class="st7" d="M82.8,68.2c-0.3,0.5-0.5,1-0.8,1.2c-4.7,4.2-9.3,8.4-14,12.6c-0.8,0.7-1.6,0.7-2.2,0c-0.6-0.6-0.5-1.5,0.3-2.2
	c4.6-4.2,9.3-8.3,13.9-12.5c0.5-0.5,1.1-0.8,1.7-0.4C82.1,67.3,82.4,67.8,82.8,68.2z"/>
<linearGradient id="SVGID_9_" gradientUnits="userSpaceOnUse" x1="105.5" y1="95.4" x2="114.1" y2="95.4">
	<stop  offset="7.065909e-02" style="stop-color:#E5E5E5"/>
	<stop  offset="0.1324" style="stop-color:#E1E1E1"/>
	<stop  offset="0.1873" style="stop-color:#DEDEDE"/>
	<stop  offset="0.2274" style="stop-color:#DCDCDC"/>
	<stop  offset="0.2688" style="stop-color:#D6D6D5"/>
	<stop  offset="0.3085" style="stop-color:#D5D5D4"/>
	<stop  offset="0.3614" style="stop-color:#D3D3D2"/>
	<stop  offset="0.4188" style="stop-color:#D1D1D0"/>
	<stop  offset="0.4456" style="stop-color:#CFCFCE"/>
	<stop  offset="0.509" style="stop-color:#CDCDCC"/>
	<stop  offset="0.5404" style="stop-color:#CBCBCA"/>
	<stop  offset="0.5872" style="stop-color:#C7C7C6"/>
	<stop  offset="0.599" style="stop-color:#C6C6C5"/>
	<stop  offset="0.6516" style="stop-color:#C4C4C3"/>
	<stop  offset="0.6927" style="stop-color:#C2C2C1"/>
	<stop  offset="0.7224" style="stop-color:#C1C1C0"/>
	<stop  offset="0.7579" style="stop-color:#C1C1C0"/>
	<stop  offset="0.8064" style="stop-color:#C0C0BF"/>
	<stop  offset="0.8612" style="stop-color:#BFBFBE"/>
	<stop  offset="0.8826" style="stop-color:#BFBFBE"/>
	<stop  offset="0.918" style="stop-color:#B5B5B4"/>
	<stop  offset="0.9575" style="stop-color:#B1B1B0"/>
	<stop  offset="0.9623" style="stop-color:#ADADAC"/>
</linearGradient>
<path class="st8" d="M109.8,99.7c-2.4,0-4.3-1.8-4.3-4.2c0-2.4,1.9-4.3,4.3-4.4c2.4,0,4.3,2,4.3,4.3
	C114.1,97.8,112.2,99.7,109.8,99.7z M109.8,94c-0.8,0-1.4,0.6-1.4,1.4s0.6,1.4,1.3,1.4c0.8,0,1.5-0.6,1.5-1.4
	C111.3,94.7,110.6,94,109.8,94z"/>
<linearGradient id="SVGID_10_" gradientUnits="userSpaceOnUse" x1="71.1" y1="55.3" x2="79.7" y2="55.3">
	<stop  offset="7.065909e-02" style="stop-color:#E5E5E5"/>
	<stop  offset="0.1324" style="stop-color:#E1E1E1"/>
	<stop  offset="0.1873" style="stop-color:#DEDEDE"/>
	<stop  offset="0.2274" style="stop-color:#DCDCDC"/>
	<stop  offset="0.2688" style="stop-color:#D6D6D5"/>
	<stop  offset="0.3085" style="stop-color:#D5D5D4"/>
	<stop  offset="0.3614" style="stop-color:#D3D3D2"/>
	<stop  offset="0.4188" style="stop-color:#D1D1D0"/>
	<stop  offset="0.4456" style="stop-color:#CFCFCE"/>
	<stop  offset="0.509" style="stop-color:#CDCDCC"/>
	<stop  offset="0.5404" style="stop-color:#CBCBCA"/>
	<stop  offset="0.5872" style="stop-color:#C7C7C6"/>
	<stop  offset="0.599" style="stop-color:#C6C6C5"/>
	<stop  offset="0.6516" style="stop-color:#C4C4C3"/>
	<stop  offset="0.6927" style="stop-color:#C2C2C1"/>
	<stop  offset="0.7224" style="stop-color:#C1C1C0"/>
	<stop  offset="0.7579" style="stop-color:#C1C1C0"/>
	<stop  offset="0.8064" style="stop-color:#C0C0BF"/>
	<stop  offset="0.8612" style="stop-color:#BFBFBE"/>
	<stop  offset="0.8826" style="stop-color:#BFBFBE"/>
	<stop  offset="0.918" style="stop-color:#B5B5B4"/>
	<stop  offset="0.9575" style="stop-color:#B1B1B0"/>
	<stop  offset="0.9623" style="stop-color:#ADADAC"/>
</linearGradient>
<path class="st9" d="M79.7,55.3c0,2.4-1.9,4.3-4.3,4.3s-4.3-1.9-4.3-4.3c0-2.4,1.9-4.3,4.3-4.3C77.8,51.1,79.7,53,79.7,55.3z
	 M75.5,56.8c0.8,0,1.4-0.7,1.4-1.5c0-0.7-0.7-1.4-1.4-1.4c-0.8,0-1.4,0.7-1.4,1.4C74,56.2,74.6,56.8,75.5,56.8z"/>
<linearGradient id="SVGID_11_" gradientUnits="userSpaceOnUse" x1="59.6" y1="42.4473" x2="65.3054" y2="42.4473">
	<stop  offset="7.065909e-02" style="stop-color:#E5E5E5"/>
	<stop  offset="0.1324" style="stop-color:#E1E1E1"/>
	<stop  offset="0.1873" style="stop-color:#DEDEDE"/>
	<stop  offset="0.2274" style="stop-color:#DCDCDC"/>
	<stop  offset="0.2688" style="stop-color:#D6D6D5"/>
	<stop  offset="0.3085" style="stop-color:#D5D5D4"/>
	<stop  offset="0.3614" style="stop-color:#D3D3D2"/>
	<stop  offset="0.4188" style="stop-color:#D1D1D0"/>
	<stop  offset="0.4456" style="stop-color:#CFCFCE"/>
	<stop  offset="0.509" style="stop-color:#CDCDCC"/>
	<stop  offset="0.5404" style="stop-color:#CBCBCA"/>
	<stop  offset="0.5872" style="stop-color:#C7C7C6"/>
	<stop  offset="0.599" style="stop-color:#C6C6C5"/>
	<stop  offset="0.6516" style="stop-color:#C4C4C3"/>
	<stop  offset="0.6927" style="stop-color:#C2C2C1"/>
	<stop  offset="0.7224" style="stop-color:#C1C1C0"/>
	<stop  offset="0.7579" style="stop-color:#C1C1C0"/>
	<stop  offset="0.8064" style="stop-color:#C0C0BF"/>
	<stop  offset="0.8612" style="stop-color:#BFBFBE"/>
	<stop  offset="0.8826" style="stop-color:#BFBFBE"/>
	<stop  offset="0.918" style="stop-color:#B5B5B4"/>
	<stop  offset="0.9575" style="stop-color:#B1B1B0"/>
	<stop  offset="0.9623" style="stop-color:#ADADAC"/>
</linearGradient>
<path class="st10" d="M62.5,45.3c-1.6,0-2.9-1.3-2.9-2.9c0-1.6,1.3-2.9,2.9-2.8c1.5,0,2.8,1.3,2.8,2.8C65.4,44,64.1,45.3,62.5,45.3z
	"/>
<linearGradient id="SVGID_12_" gradientUnits="userSpaceOnUse" x1="107" y1="61.8936" x2="109.9" y2="61.8936">
	<stop  offset="7.065909e-02" style="stop-color:#E5E5E5"/>
	<stop  offset="0.1324" style="stop-color:#E1E1E1"/>
	<stop  offset="0.1873" style="stop-color:#DEDEDE"/>
	<stop  offset="0.2274" style="stop-color:#DCDCDC"/>
	<stop  offset="0.2688" style="stop-color:#D6D6D5"/>
	<stop  offset="0.3085" style="stop-color:#D5D5D4"/>
	<stop  offset="0.3614" style="stop-color:#D3D3D2"/>
	<stop  offset="0.4188" style="stop-color:#D1D1D0"/>
	<stop  offset="0.4456" style="stop-color:#CFCFCE"/>
	<stop  offset="0.509" style="stop-color:#CDCDCC"/>
	<stop  offset="0.5404" style="stop-color:#CBCBCA"/>
	<stop  offset="0.5872" style="stop-color:#C7C7C6"/>
	<stop  offset="0.599" style="stop-color:#C6C6C5"/>
	<stop  offset="0.6516" style="stop-color:#C4C4C3"/>
	<stop  offset="0.6927" style="stop-color:#C2C2C1"/>
	<stop  offset="0.7224" style="stop-color:#C1C1C0"/>
	<stop  offset="0.7579" style="stop-color:#C1C1C0"/>
	<stop  offset="0.8064" style="stop-color:#C0C0BF"/>
	<stop  offset="0.8612" style="stop-color:#BFBFBE"/>
	<stop  offset="0.8826" style="stop-color:#BFBFBE"/>
	<stop  offset="0.918" style="stop-color:#B5B5B4"/>
	<stop  offset="0.9575" style="stop-color:#B1B1B0"/>
	<stop  offset="0.9623" style="stop-color:#ADADAC"/>
</linearGradient>
<path class="st11" d="M109.8,61.9c0,1.4-0.5,2.1-1.4,2.1c-1,0-1.4-0.7-1.4-2.1c0-0.3,0-0.7,0.1-1c0.2-0.7,0.8-1.2,1.5-1.1
	c0.8,0.1,1.2,0.5,1.3,1.3C109.8,61.3,109.8,61.6,109.8,61.9z"/>
<linearGradient id="SVGID_13_" gradientUnits="userSpaceOnUse" x1="104" y1="45.35" x2="108.3" y2="45.35">
	<stop  offset="7.065909e-02" style="stop-color:#E5E5E5"/>
	<stop  offset="0.1324" style="stop-color:#E1E1E1"/>
	<stop  offset="0.1873" style="stop-color:#DEDEDE"/>
	<stop  offset="0.2274" style="stop-color:#DCDCDC"/>
	<stop  offset="0.2688" style="stop-color:#D6D6D5"/>
	<stop  offset="0.3085" style="stop-color:#D5D5D4"/>
	<stop  offset="0.3614" style="stop-color:#D3D3D2"/>
	<stop  offset="0.4188" style="stop-color:#D1D1D0"/>
	<stop  offset="0.4456" style="stop-color:#CFCFCE"/>
	<stop  offset="0.509" style="stop-color:#CDCDCC"/>
	<stop  offset="0.5404" style="stop-color:#CBCBCA"/>
	<stop  offset="0.5872" style="stop-color:#C7C7C6"/>
	<stop  offset="0.599" style="stop-color:#C6C6C5"/>
	<stop  offset="0.6516" style="stop-color:#C4C4C3"/>
	<stop  offset="0.6927" style="stop-color:#C2C2C1"/>
	<stop  offset="0.7224" style="stop-color:#C1C1C0"/>
	<stop  offset="0.7579" style="stop-color:#C1C1C0"/>
	<stop  offset="0.8064" style="stop-color:#C0C0BF"/>
	<stop  offset="0.8612" style="stop-color:#BFBFBE"/>
	<stop  offset="0.8826" style="stop-color:#BFBFBE"/>
	<stop  offset="0.918" style="stop-color:#B5B5B4"/>
	<stop  offset="0.9575" style="stop-color:#B1B1B0"/>
	<stop  offset="0.9623" style="stop-color:#ADADAC"/>
</linearGradient>
<path class="st12" d="M106.2,43.9c1.4,0,2.1,0.4,2.1,1.4s-0.7,1.5-2.1,1.5c-0.3,0-0.7,0-1-0.1c-0.8-0.2-1.2-0.7-1.2-1.4
	s0.5-1.3,1.3-1.4C105.7,43.9,105.9,43.9,106.2,43.9z"/>
<linearGradient id="SVGID_14_" gradientUnits="userSpaceOnUse" x1="111.0959" y1="63.7455" x2="114.8045" y2="63.7455">
	<stop  offset="7.065909e-02" style="stop-color:#E5E5E5"/>
	<stop  offset="0.1324" style="stop-color:#E1E1E1"/>
	<stop  offset="0.1873" style="stop-color:#DEDEDE"/>
	<stop  offset="0.2274" style="stop-color:#DCDCDC"/>
	<stop  offset="0.2688" style="stop-color:#D6D6D5"/>
	<stop  offset="0.3085" style="stop-color:#D5D5D4"/>
	<stop  offset="0.3614" style="stop-color:#D3D3D2"/>
	<stop  offset="0.4188" style="stop-color:#D1D1D0"/>
	<stop  offset="0.4456" style="stop-color:#CFCFCE"/>
	<stop  offset="0.509" style="stop-color:#CDCDCC"/>
	<stop  offset="0.5404" style="stop-color:#CBCBCA"/>
	<stop  offset="0.5872" style="stop-color:#C7C7C6"/>
	<stop  offset="0.599" style="stop-color:#C6C6C5"/>
	<stop  offset="0.6516" style="stop-color:#C4C4C3"/>
	<stop  offset="0.6927" style="stop-color:#C2C2C1"/>
	<stop  offset="0.7224" style="stop-color:#C1C1C0"/>
	<stop  offset="0.7579" style="stop-color:#C1C1C0"/>
	<stop  offset="0.8064" style="stop-color:#C0C0BF"/>
	<stop  offset="0.8612" style="stop-color:#BFBFBE"/>
	<stop  offset="0.8826" style="stop-color:#BFBFBE"/>
	<stop  offset="0.918" style="stop-color:#B5B5B4"/>
	<stop  offset="0.9575" style="stop-color:#B1B1B0"/>
	<stop  offset="0.9623" style="stop-color:#ADADAC"/>
</linearGradient>
<path class="st13" d="M112.1,65.6c-0.2-0.2-0.8-0.4-0.9-0.8c-0.2-0.4-0.1-1,0.2-1.5c0.3-0.5,0.7-1,1.2-1.2c0.4-0.2,1-0.3,1.4-0.1
	s0.7,0.7,0.8,1.1C114.9,64.1,113.3,65.6,112.1,65.6z"/>
<linearGradient id="SVGID_15_" gradientUnits="userSpaceOnUse" x1="112.7" y1="68.35" x2="117" y2="68.35">
	<stop  offset="7.065909e-02" style="stop-color:#E5E5E5"/>
	<stop  offset="0.1324" style="stop-color:#E1E1E1"/>
	<stop  offset="0.1873" style="stop-color:#DEDEDE"/>
	<stop  offset="0.2274" style="stop-color:#DCDCDC"/>
	<stop  offset="0.2688" style="stop-color:#D6D6D5"/>
	<stop  offset="0.3085" style="stop-color:#D5D5D4"/>
	<stop  offset="0.3614" style="stop-color:#D3D3D2"/>
	<stop  offset="0.4188" style="stop-color:#D1D1D0"/>
	<stop  offset="0.4456" style="stop-color:#CFCFCE"/>
	<stop  offset="0.509" style="stop-color:#CDCDCC"/>
	<stop  offset="0.5404" style="stop-color:#CBCBCA"/>
	<stop  offset="0.5872" style="stop-color:#C7C7C6"/>
	<stop  offset="0.599" style="stop-color:#C6C6C5"/>
	<stop  offset="0.6516" style="stop-color:#C4C4C3"/>
	<stop  offset="0.6927" style="stop-color:#C2C2C1"/>
	<stop  offset="0.7224" style="stop-color:#C1C1C0"/>
	<stop  offset="0.7579" style="stop-color:#C1C1C0"/>
	<stop  offset="0.8064" style="stop-color:#C0C0BF"/>
	<stop  offset="0.8612" style="stop-color:#BFBFBE"/>
	<stop  offset="0.8826" style="stop-color:#BFBFBE"/>
	<stop  offset="0.918" style="stop-color:#B5B5B4"/>
	<stop  offset="0.9575" style="stop-color:#B1B1B0"/>
	<stop  offset="0.9623" style="stop-color:#ADADAC"/>
</linearGradient>
<path class="st14" d="M114.8,69.7c-1.4,0-2.1-0.5-2.1-1.4c0-1,0.7-1.4,2.1-1.4c0.3,0,0.5,0,0.8,0c0.8,0.1,1.4,0.7,1.4,1.5
	s-0.6,1.3-1.5,1.4C115.2,69.7,115,69.7,114.8,69.7z"/>
<linearGradient id="SVGID_16_" gradientUnits="userSpaceOnUse" x1="106.9" y1="74.65" x2="109.8" y2="74.65">
	<stop  offset="7.065909e-02" style="stop-color:#E5E5E5"/>
	<stop  offset="0.1324" style="stop-color:#E1E1E1"/>
	<stop  offset="0.1873" style="stop-color:#DEDEDE"/>
	<stop  offset="0.2274" style="stop-color:#DCDCDC"/>
	<stop  offset="0.2688" style="stop-color:#D6D6D5"/>
	<stop  offset="0.3085" style="stop-color:#D5D5D4"/>
	<stop  offset="0.3614" style="stop-color:#D3D3D2"/>
	<stop  offset="0.4188" style="stop-color:#D1D1D0"/>
	<stop  offset="0.4456" style="stop-color:#CFCFCE"/>
	<stop  offset="0.509" style="stop-color:#CDCDCC"/>
	<stop  offset="0.5404" style="stop-color:#CBCBCA"/>
	<stop  offset="0.5872" style="stop-color:#C7C7C6"/>
	<stop  offset="0.599" style="stop-color:#C6C6C5"/>
	<stop  offset="0.6516" style="stop-color:#C4C4C3"/>
	<stop  offset="0.6927" style="stop-color:#C2C2C1"/>
	<stop  offset="0.7224" style="stop-color:#C1C1C0"/>
	<stop  offset="0.7579" style="stop-color:#C1C1C0"/>
	<stop  offset="0.8064" style="stop-color:#C0C0BF"/>
	<stop  offset="0.8612" style="stop-color:#BFBFBE"/>
	<stop  offset="0.8826" style="stop-color:#BFBFBE"/>
	<stop  offset="0.918" style="stop-color:#B5B5B4"/>
	<stop  offset="0.9575" style="stop-color:#B1B1B0"/>
	<stop  offset="0.9623" style="stop-color:#ADADAC"/>
</linearGradient>
<path class="st15" d="M109.8,74.7c0,1.4-0.4,2.1-1.4,2.1s-1.5-0.7-1.5-2.1c0-0.3,0-0.6,0-0.9c0.1-0.7,0.7-1.3,1.4-1.3
	c0.8,0,1.3,0.6,1.4,1.4C109.8,74.2,109.8,74.5,109.8,74.7z"/>
<linearGradient id="SVGID_17_" gradientUnits="userSpaceOnUse" x1="101.2" y1="41.9" x2="104.075" y2="41.9">
	<stop  offset="7.065909e-02" style="stop-color:#E5E5E5"/>
	<stop  offset="0.1324" style="stop-color:#E1E1E1"/>
	<stop  offset="0.1873" style="stop-color:#DEDEDE"/>
	<stop  offset="0.2274" style="stop-color:#DCDCDC"/>
	<stop  offset="0.2688" style="stop-color:#D6D6D5"/>
	<stop  offset="0.3085" style="stop-color:#D5D5D4"/>
	<stop  offset="0.3614" style="stop-color:#D3D3D2"/>
	<stop  offset="0.4188" style="stop-color:#D1D1D0"/>
	<stop  offset="0.4456" style="stop-color:#CFCFCE"/>
	<stop  offset="0.509" style="stop-color:#CDCDCC"/>
	<stop  offset="0.5404" style="stop-color:#CBCBCA"/>
	<stop  offset="0.5872" style="stop-color:#C7C7C6"/>
	<stop  offset="0.599" style="stop-color:#C6C6C5"/>
	<stop  offset="0.6516" style="stop-color:#C4C4C3"/>
	<stop  offset="0.6927" style="stop-color:#C2C2C1"/>
	<stop  offset="0.7224" style="stop-color:#C1C1C0"/>
	<stop  offset="0.7579" style="stop-color:#C1C1C0"/>
	<stop  offset="0.8064" style="stop-color:#C0C0BF"/>
	<stop  offset="0.8612" style="stop-color:#BFBFBE"/>
	<stop  offset="0.8826" style="stop-color:#BFBFBE"/>
	<stop  offset="0.918" style="stop-color:#B5B5B4"/>
	<stop  offset="0.9575" style="stop-color:#B1B1B0"/>
	<stop  offset="0.9623" style="stop-color:#ADADAC"/>
</linearGradient>
<path class="st16" d="M104,41.8c0,0.3,0,0.5,0,0.8c-0.1,0.8-0.6,1.4-1.4,1.4s-1.4-0.5-1.4-1.3c0-0.5,0-0.9,0-1.4
	c0-0.9,0.6-1.5,1.4-1.5s1.4,0.6,1.4,1.6C104.1,41.4,104.1,41.6,104,41.8L104,41.8z"/>
<linearGradient id="SVGID_18_" gradientUnits="userSpaceOnUse" x1="101.2" y1="49" x2="104.1" y2="49">
	<stop  offset="7.065909e-02" style="stop-color:#E5E5E5"/>
	<stop  offset="0.1324" style="stop-color:#E1E1E1"/>
	<stop  offset="0.1873" style="stop-color:#DEDEDE"/>
	<stop  offset="0.2274" style="stop-color:#DCDCDC"/>
	<stop  offset="0.2688" style="stop-color:#D6D6D5"/>
	<stop  offset="0.3085" style="stop-color:#D5D5D4"/>
	<stop  offset="0.3614" style="stop-color:#D3D3D2"/>
	<stop  offset="0.4188" style="stop-color:#D1D1D0"/>
	<stop  offset="0.4456" style="stop-color:#CFCFCE"/>
	<stop  offset="0.509" style="stop-color:#CDCDCC"/>
	<stop  offset="0.5404" style="stop-color:#CBCBCA"/>
	<stop  offset="0.5872" style="stop-color:#C7C7C6"/>
	<stop  offset="0.599" style="stop-color:#C6C6C5"/>
	<stop  offset="0.6516" style="stop-color:#C4C4C3"/>
	<stop  offset="0.6927" style="stop-color:#C2C2C1"/>
	<stop  offset="0.7224" style="stop-color:#C1C1C0"/>
	<stop  offset="0.7579" style="stop-color:#C1C1C0"/>
	<stop  offset="0.8064" style="stop-color:#C0C0BF"/>
	<stop  offset="0.8612" style="stop-color:#BFBFBE"/>
	<stop  offset="0.8826" style="stop-color:#BFBFBE"/>
	<stop  offset="0.918" style="stop-color:#B5B5B4"/>
	<stop  offset="0.9575" style="stop-color:#B1B1B0"/>
	<stop  offset="0.9623" style="stop-color:#ADADAC"/>
</linearGradient>
<path class="st17" d="M104.1,49c0,0.2,0,0.3,0,0.5c0,1-0.6,1.6-1.5,1.6c-0.8,0-1.4-0.6-1.4-1.5c0-0.4,0-0.8,0-1.2
	c0-0.9,0.6-1.5,1.4-1.5s1.4,0.6,1.4,1.5C104.1,48.5,104.1,48.8,104.1,49z"/>
<linearGradient id="SVGID_19_" gradientUnits="userSpaceOnUse" x1="96.9" y1="45.25" x2="101.2" y2="45.25">
	<stop  offset="7.065909e-02" style="stop-color:#E5E5E5"/>
	<stop  offset="0.1324" style="stop-color:#E1E1E1"/>
	<stop  offset="0.1873" style="stop-color:#DEDEDE"/>
	<stop  offset="0.2274" style="stop-color:#DCDCDC"/>
	<stop  offset="0.2688" style="stop-color:#D6D6D5"/>
	<stop  offset="0.3085" style="stop-color:#D5D5D4"/>
	<stop  offset="0.3614" style="stop-color:#D3D3D2"/>
	<stop  offset="0.4188" style="stop-color:#D1D1D0"/>
	<stop  offset="0.4456" style="stop-color:#CFCFCE"/>
	<stop  offset="0.509" style="stop-color:#CDCDCC"/>
	<stop  offset="0.5404" style="stop-color:#CBCBCA"/>
	<stop  offset="0.5872" style="stop-color:#C7C7C6"/>
	<stop  offset="0.599" style="stop-color:#C6C6C5"/>
	<stop  offset="0.6516" style="stop-color:#C4C4C3"/>
	<stop  offset="0.6927" style="stop-color:#C2C2C1"/>
	<stop  offset="0.7224" style="stop-color:#C1C1C0"/>
	<stop  offset="0.7579" style="stop-color:#C1C1C0"/>
	<stop  offset="0.8064" style="stop-color:#C0C0BF"/>
	<stop  offset="0.8612" style="stop-color:#BFBFBE"/>
	<stop  offset="0.8826" style="stop-color:#BFBFBE"/>
	<stop  offset="0.918" style="stop-color:#B5B5B4"/>
	<stop  offset="0.9575" style="stop-color:#B1B1B0"/>
	<stop  offset="0.9623" style="stop-color:#ADADAC"/>
</linearGradient>
<path class="st18" d="M99.1,43.9c0.2,0,0.3,0,0.5,0c1,0,1.6,0.6,1.6,1.4c0,0.8-0.6,1.4-1.6,1.4c-0.4,0-0.8,0-1.3,0
	c-0.9-0.1-1.4-0.7-1.4-1.5s0.6-1.3,1.5-1.4C98.6,43.9,98.8,43.9,99.1,43.9L99.1,43.9z"/>
<linearGradient id="SVGID_20_" gradientUnits="userSpaceOnUse" x1="101.8933" y1="63.7033" x2="105.7" y2="63.7033">
	<stop  offset="7.065909e-02" style="stop-color:#E5E5E5"/>
	<stop  offset="0.1324" style="stop-color:#E1E1E1"/>
	<stop  offset="0.1873" style="stop-color:#DEDEDE"/>
	<stop  offset="0.2274" style="stop-color:#DCDCDC"/>
	<stop  offset="0.2688" style="stop-color:#D6D6D5"/>
	<stop  offset="0.3085" style="stop-color:#D5D5D4"/>
	<stop  offset="0.3614" style="stop-color:#D3D3D2"/>
	<stop  offset="0.4188" style="stop-color:#D1D1D0"/>
	<stop  offset="0.4456" style="stop-color:#CFCFCE"/>
	<stop  offset="0.509" style="stop-color:#CDCDCC"/>
	<stop  offset="0.5404" style="stop-color:#CBCBCA"/>
	<stop  offset="0.5872" style="stop-color:#C7C7C6"/>
	<stop  offset="0.599" style="stop-color:#C6C6C5"/>
	<stop  offset="0.6516" style="stop-color:#C4C4C3"/>
	<stop  offset="0.6927" style="stop-color:#C2C2C1"/>
	<stop  offset="0.7224" style="stop-color:#C1C1C0"/>
	<stop  offset="0.7579" style="stop-color:#C1C1C0"/>
	<stop  offset="0.8064" style="stop-color:#C0C0BF"/>
	<stop  offset="0.8612" style="stop-color:#BFBFBE"/>
	<stop  offset="0.8826" style="stop-color:#BFBFBE"/>
	<stop  offset="0.918" style="stop-color:#B5B5B4"/>
	<stop  offset="0.9575" style="stop-color:#B1B1B0"/>
	<stop  offset="0.9623" style="stop-color:#ADADAC"/>
</linearGradient>
<path class="st19" d="M105.7,64.2c0,1-1.2,1.8-2,1.2c-0.6-0.4-1.2-1-1.6-1.6c-0.6-0.8,0.2-2,1.2-2C104.2,61.8,105.7,63.3,105.7,64.2
	z"/>
<linearGradient id="SVGID_21_" gradientUnits="userSpaceOnUse" x1="111.15" y1="72.7728" x2="114.8" y2="72.7728">
	<stop  offset="7.065909e-02" style="stop-color:#E5E5E5"/>
	<stop  offset="0.1324" style="stop-color:#E1E1E1"/>
	<stop  offset="0.1873" style="stop-color:#DEDEDE"/>
	<stop  offset="0.2274" style="stop-color:#DCDCDC"/>
	<stop  offset="0.2688" style="stop-color:#D6D6D5"/>
	<stop  offset="0.3085" style="stop-color:#D5D5D4"/>
	<stop  offset="0.3614" style="stop-color:#D3D3D2"/>
	<stop  offset="0.4188" style="stop-color:#D1D1D0"/>
	<stop  offset="0.4456" style="stop-color:#CFCFCE"/>
	<stop  offset="0.509" style="stop-color:#CDCDCC"/>
	<stop  offset="0.5404" style="stop-color:#CBCBCA"/>
	<stop  offset="0.5872" style="stop-color:#C7C7C6"/>
	<stop  offset="0.599" style="stop-color:#C6C6C5"/>
	<stop  offset="0.6516" style="stop-color:#C4C4C3"/>
	<stop  offset="0.6927" style="stop-color:#C2C2C1"/>
	<stop  offset="0.7224" style="stop-color:#C1C1C0"/>
	<stop  offset="0.7579" style="stop-color:#C1C1C0"/>
	<stop  offset="0.8064" style="stop-color:#C0C0BF"/>
	<stop  offset="0.8612" style="stop-color:#BFBFBE"/>
	<stop  offset="0.8826" style="stop-color:#BFBFBE"/>
	<stop  offset="0.918" style="stop-color:#B5B5B4"/>
	<stop  offset="0.9575" style="stop-color:#B1B1B0"/>
	<stop  offset="0.9623" style="stop-color:#ADADAC"/>
</linearGradient>
<path class="st20" d="M114.8,73.6c-0.1,0.2-0.4,0.7-0.7,0.9c-0.4,0.2-1,0.2-1.4,0c-0.6-0.4-1.1-0.9-1.4-1.5c-0.2-0.4-0.2-1,0-1.4
	s0.8-0.7,1.2-0.7C113.3,70.8,114.8,72.4,114.8,73.6z"/>
</svg>
