<?xml version="1.0" encoding="utf-8"?>
<!-- Generator: Adobe Illustrator 25.1.0, SVG Export Plug-In . SVG Version: 6.00 Build 0)  -->
<svg version="1.1" id="Capa_1" xmlns="http://www.w3.org/2000/svg" xmlns:xlink="http://www.w3.org/1999/xlink" x="0px" y="0px"
	 viewBox="0 0 150 150" style="enable-background:new 0 0 150 150;" xml:space="preserve">
<style type="text/css">
	.st0{fill:url(#SVGID_1_);}
</style>
<linearGradient id="SVGID_1_" gradientUnits="userSpaceOnUse" x1="36.2" y1="79.2373" x2="97.7" y2="79.2373">
	<stop  offset="7.065909e-02" style="stop-color:#E5E5E5"/>
	<stop  offset="0.1324" style="stop-color:#E1E1E1"/>
	<stop  offset="0.1873" style="stop-color:#DEDEDE"/>
	<stop  offset="0.2274" style="stop-color:#DCDCDC"/>
	<stop  offset="0.2688" style="stop-color:#D6D6D5"/>
	<stop  offset="0.3085" style="stop-color:#D5D5D4"/>
	<stop  offset="0.3614" style="stop-color:#D3D3D2"/>
	<stop  offset="0.4188" style="stop-color:#D1D1D0"/>
	<stop  offset="0.4456" style="stop-color:#CFCFCE"/>
	<stop  offset="0.509" style="stop-color:#CDCDCC"/>
	<stop  offset="0.5404" style="stop-color:#CBCBCA"/>
	<stop  offset="0.5872" style="stop-color:#C7C7C6"/>
	<stop  offset="0.599" style="stop-color:#C6C6C5"/>
	<stop  offset="0.6516" style="stop-color:#C4C4C3"/>
	<stop  offset="0.6927" style="stop-color:#C2C2C1"/>
	<stop  offset="0.7224" style="stop-color:#C1C1C0"/>
	<stop  offset="0.7579" style="stop-color:#C1C1C0"/>
	<stop  offset="0.8064" style="stop-color:#C0C0BF"/>
	<stop  offset="0.8612" style="stop-color:#BFBFBE"/>
	<stop  offset="0.8826" style="stop-color:#BFBFBE"/>
	<stop  offset="0.918" style="stop-color:#B5B5B4"/>
	<stop  offset="0.9575" style="stop-color:#B1B1B0"/>
	<stop  offset="0.9623" style="stop-color:#ADADAC"/>
</linearGradient>
<path class="st0" d="M96.8,46.8L96.8,46.8c-0.4-0.4-1-0.6-1.6-0.5L59,51c-1,0.1-1.8,1-1.8,2v39.4c-2.3-1.9-5.3-3-8.4-3
	c-6.9,0-12.6,5.1-12.6,11.4s5.6,11.4,12.6,11.4s12.6-5.1,12.6-11.4c0-0.2,0-0.5,0-0.7c0-0.1,0-0.2,0-0.3v-33l32.1-4.1v18.1
	c-2.3-1.9-5.3-3-8.4-3c-6.9,0-12.6,5.1-12.6,11.4s5.6,11.4,12.6,11.4c6.8,0,12.4-5,12.6-11.1V48.3C97.5,47.7,97.3,47.2,96.8,46.8z
	 M93.4,89.2c0,4-3.8,7.3-8.4,7.3c-4.7,0-8.4-3.3-8.4-7.3s3.8-7.3,8.4-7.3C89.6,81.9,93.4,85.2,93.4,89.2z M93.4,50.7v7.8l-32.1,4.1
	v-7.8L93.4,50.7z M57.2,100.9c0,4-3.8,7.3-8.4,7.3c-4.7,0-8.4-3.3-8.4-7.3s3.8-7.3,8.4-7.3S57.2,96.9,57.2,100.9z"/>
</svg>
